<?xml version="1.0" encoding="iso-8859-1"?>
<!-- Generator: Adobe Illustrator 19.0.0, SVG Export Plug-In . SVG Version: 6.00 Build 0)  -->
<svg version="1.1" id="Capa_1" xmlns="http://www.w3.org/2000/svg" x="0px" y="0px" viewBox="0 0 491.52 491.52" style="enable-background:new 0 0 491.52 491.52;"
    xml:space="preserve">
<circle style="fill:#45B39C;" cx="245.76" cy="245.76" r="245.76"/>
<path style="opacity:0.1;enable-background:new    ;" d="M484.012,306.185L383.42,205.594c-1.158-1.209-2.573-2.206-4.256-2.814
	c-90.699-32.79-175.936-32.851-266.808,0c-5.871,2.122-8.897,8.624-6.656,14.452l32.019,83.27h0.001v12.854l170.213,170.213
	C394.277,461.057,462.117,392.776,484.012,306.185z"/>
<path style="fill:#EBF0F3;" d="M105.7,217.231l32.019,83.27H353.8l32.02-83.27c2.241-5.827-0.784-12.329-6.656-14.452
	c-90.699-32.79-175.936-32.851-266.808,0C106.485,204.902,103.459,211.404,105.7,217.231z"/>
<rect x="137.718" y="300.503" style="fill:#D5D6DB;" width="216.064" height="12.856"/>
<circle style="fill:#E56353;" cx="245.76" cy="242.995" r="45.527"/>
<polygon style="fill:#FFFFFF;" points="277.275,230.906 257.824,230.906 257.824,211.456 233.696,211.456 233.696,230.906 
	214.245,230.906 214.245,255.034 233.696,255.034 233.696,274.485 257.824,274.485 257.824,255.034 277.275,255.034 "/>
<g>
</g>
<g>
</g>
<g>
</g>
<g>
</g>
<g>
</g>
<g>
</g>
<g>
</g>
<g>
</g>
<g>
</g>
<g>
</g>
<g>
</g>
<g>
</g>
<g>
</g>
<g>
</g>
<g>
</g>
</svg>
