<svg id="Layer_1" enable-background="new 0 0 256 256" height="512" viewBox="0 0 256 256" width="512" xmlns="http://www.w3.org/2000/svg"><g><g><g><path d="m142.813 79.31v-10.166h-34.989v10.166l-23.104 13.691c-2.775 1.644-4.596 4.516-4.901 7.727l-13.406 141.229c-.562 5.922 4.096 11.043 10.045 11.043 2.046 0 100.467 0 97.721 0 5.949 0 10.607-5.121 10.045-11.043l-13.406-141.229c-.305-3.211-2.126-6.082-4.901-7.727z" fill="#4671c6"/></g></g><g><g><circle cx="125.608" cy="162.5" fill="#e0ebfc" r="37.5"/></g></g><g><g><path d="m145.646 153.93h-13.186v-13.186c0-1.387-1.124-2.512-2.512-2.512h-9.261c-1.387 0-2.512 1.124-2.512 2.512v13.186h-13.185c-1.387 0-2.512 1.124-2.512 2.512v9.261c0 1.387 1.124 2.512 2.512 2.512h13.186v13.185c0 1.387 1.124 2.512 2.512 2.512h9.261c1.387 0 2.512-1.124 2.512-2.512v-13.186h13.186c1.387 0 2.512-1.124 2.512-2.512v-9.261c-.001-1.387-1.126-2.511-2.513-2.511z" fill="#f9a7a7"/></g></g><g><g><path d="m174.235 255h-97.777c-3.397 0-6.657-1.441-8.944-3.955-2.286-2.514-3.413-5.895-3.092-9.276l13.406-141.23c.364-3.833 2.559-7.294 5.873-9.258l22.123-13.109v-9.027c0-1.104.896-2 2-2h34.989c1.104 0 2 .896 2 2v9.027l22.123 13.109c3.313 1.964 5.509 5.425 5.873 9.259l13.406 141.229c.321 3.383-.806 6.764-3.092 9.277-2.265 2.49-5.485 3.928-8.848 3.955-.013-.001-.026-.001-.04-.001zm-64.411-183.856v8.167c0 .706-.373 1.36-.98 1.721l-23.104 13.69c-2.217 1.313-3.686 3.63-3.929 6.194l-13.406 141.23c-.218 2.296.517 4.5 2.069 6.207 1.553 1.707 3.678 2.646 5.985 2.646h97.721c2.307 0 4.432-.939 5.984-2.646 1.553-1.706 2.288-3.911 2.069-6.208l-13.406-141.229c-.243-2.565-1.712-4.881-3.93-6.195l-23.103-13.69c-.608-.36-.98-1.015-.98-1.721v-8.167h-30.99z" fill="#3762cc"/></g></g><g><g><path d="m165.209 59.397-12.577-12.71c-.847-.856-1.492-1.89-1.888-3.026l-7.333-21.042h11.902l4.544 17.626c.301 1.169.861 2.256 1.637 3.181l9.206 10.963c1.493 1.778 1.01 4.475-1.008 5.624-1.461.832-3.3.579-4.483-.616z" fill="#a4c9ff"/></g></g><g><g><path d="m117.471 12.716h15.695v52.317h-15.695z" fill="#e0ebfc"/></g></g><g><g><path d="m167.857 62.498c-1.492 0-2.969-.582-4.07-1.695l-12.577-12.709c-1.05-1.061-1.864-2.366-2.355-3.775l-7.333-21.041c-.213-.611-.117-1.288.258-1.816s.983-.842 1.63-.842h11.902c.912 0 1.709.617 1.937 1.501l4.544 17.626c.226.874.652 1.702 1.232 2.394l9.207 10.963c1.095 1.304 1.55 3.013 1.25 4.688-.301 1.676-1.321 3.119-2.8 3.961-.883.5-1.857.745-2.825.745zm-21.63-37.879 6.407 18.383c.296.851.788 1.638 1.42 2.277l12.577 12.71v.001c.546.551 1.398.669 2.072.284.608-.347.789-.895.841-1.19.053-.296.075-.873-.375-1.409l-9.206-10.963c-.962-1.146-1.669-2.519-2.042-3.968l-4.157-16.125z" fill="#3762cc"/></g></g><g><g><path d="m133.166 67.033h-15.695c-1.104 0-2-.896-2-2v-52.317c0-1.104.896-2 2-2h15.695c1.104 0 2 .896 2 2v52.317c0 1.105-.896 2-2 2zm-13.695-4h11.695v-48.317h-11.695z" fill="#3762cc"/></g></g><g><g><path d="m141.013 66.447h-31.39v-25.33c0-1.238 1.004-2.242 2.242-2.242h26.906c1.238 0 2.242 1.004 2.242 2.242z" fill="#a4c9ff"/></g></g><g><g><path d="m141.013 68.447h-31.39c-1.104 0-2-.896-2-2v-25.331c0-2.339 1.903-4.242 4.242-4.242h26.906c2.339 0 4.242 1.903 4.242 4.242v25.331c0 1.105-.895 2-2 2zm-29.39-4h27.39v-23.331c0-.134-.109-.242-.242-.242h-26.906c-.134 0-.242.108-.242.242z" fill="#3762cc"/></g></g><g><g><path d="m148.861 72.507h-47.085c-1.857 0-3.363-1.506-3.363-3.363v-13.878c0-1.857 1.506-3.363 3.363-3.363h47.085c1.857 0 3.363 1.506 3.363 3.363v13.877c0 1.858-1.506 3.364-3.363 3.364z" fill="#a4c9ff"/></g></g><g><g><path d="m148.861 74.507h-47.085c-2.957 0-5.363-2.406-5.363-5.363v-13.877c0-2.957 2.406-5.363 5.363-5.363h47.085c2.958 0 5.363 2.406 5.363 5.363v13.877c0 2.957-2.406 5.363-5.363 5.363zm-47.086-20.604c-.751 0-1.363.611-1.363 1.363v13.877c0 .752.611 1.363 1.363 1.363h47.085c.752 0 1.363-.611 1.363-1.363v-13.876c0-.752-.611-1.363-1.363-1.363h-47.085z" fill="#3762cc"/></g></g><g><g><path d="m168.038 29.532h-69.252c-3.096 0-5.605-2.51-5.605-5.605v-15.322c0-3.095 2.509-5.605 5.605-5.605h69.252c1.238 0 2.242 1.004 2.242 2.242v22.048c0 1.238-1.004 2.242-2.242 2.242z" fill="#a4c9ff"/></g></g><g><g><path d="m181.445 7.37h-11.165v17.792h11.165l8.188-4.826c0-2.884 0-4.879 0-8.14z" fill="#4671c6"/></g></g><g><g><path d="m168.038 31.532h-69.252c-4.194 0-7.605-3.412-7.605-7.605v-15.322c0-4.193 3.411-7.605 7.605-7.605h69.251c2.339 0 4.242 1.903 4.242 4.242v22.048c.001 2.339-1.902 4.242-4.241 4.242zm-69.252-26.532c-1.988 0-3.605 1.617-3.605 3.605v15.321c0 1.988 1.617 3.605 3.605 3.605h69.251c.133 0 .242-.108.242-.242v-22.047c0-.134-.109-.242-.242-.242z" fill="#3762cc"/></g></g><g><g><path d="m181.445 27.162h-11.165c-1.104 0-2-.896-2-2v-17.792c0-1.104.896-2 2-2h11.166c.357 0 .708.096 1.016.277l8.188 4.826c.61.359.984 1.015.984 1.723v8.14c0 .708-.375 1.363-.984 1.723l-8.188 4.826c-.309.181-.659.277-1.017.277zm-9.165-4h8.62l6.733-3.969v-5.854l-6.733-3.969h-8.62z" fill="#3762cc"/></g></g></g></svg>