<svg id="Flat" height="512" viewBox="0 0 512 512" width="512" xmlns="http://www.w3.org/2000/svg"><path d="m280 152a63.862 63.862 0 0 0 -23.116-49.235 39.993 39.993 0 0 0 -52.711-57.5 56.007 56.007 0 0 0 -89.573 59.624 64 64 0 0 0 -49 114.311 48 48 0 0 0 -7.121 44.02 63.97 63.97 0 1 0 90.706 37.964 64.034 64.034 0 0 0 77.768-86.137 64 64 0 0 0 53.047-63.047z" fill="#2aa2c3"/><path d="m87.067 367.991a48 48 0 0 1 -21.195-90.581l.723-.377a15.043 15.043 0 0 0 7.316-18.112l-.128-.383a33.281 33.281 0 0 1 -1.693-8.081 31.807 31.807 0 0 1 6.3-21.647l.574-.765a15.043 15.043 0 0 0 -2.993-21.063l-.765-.575a48 48 0 0 1 28.794-86.407 48.64 48.64 0 0 1 7.965.671l1.539.257a15.044 15.044 0 0 0 16.82-19.373l-.47-1.487a40.027 40.027 0 0 1 40.07-52.023 40.938 40.938 0 0 1 24.417 9.86 15.042 15.042 0 0 0 17.195 1.581l.582-.333a23.992 23.992 0 0 1 31.618 34.493l-.5.721a15.043 15.043 0 0 0 2.745 20.142l.674.56a47.99 47.99 0 0 1 -22.425 84.211l-1.188.205a15.045 15.045 0 0 0 -11.293 20.7l.471 1.11a48.034 48.034 0 0 1 -58.339 64.6 16 16 0 0 0 -19.992 19.994 48.036 48.036 0 0 1 -46.823 62.108z" fill="#5db9d2"/><path d="m472 264a63.992 63.992 0 0 0 -127.838-4.331 64 64 0 1 0 -40.489 117.931 64.01 64.01 0 1 0 107.106-8.532 48.028 48.028 0 0 0 12.221-42.853 64.013 64.013 0 0 0 49-62.215z" fill="#2aa2c3"/><path d="m362.618 455.93a48.017 48.017 0 0 1 -44.872-70.723 16 16 0 0 0 -12.452-23.53 48 48 0 1 1 30.372-88.45 16 16 0 0 0 24.46-12.49 47.994 47.994 0 1 1 59.136 49.922 16 16 0 0 0 -11.93 18.8 32.3 32.3 0 0 1 .668 6.541 31.85 31.85 0 0 1 -8.815 22.036 16 16 0 0 0 -1.1 20.771 47.517 47.517 0 0 1 9.9 28.334 48.225 48.225 0 0 1 -45.367 48.789z" fill="#5db9d2"/><path d="m416.2 50.869a20 20 0 0 1 28.284 0 20 20 0 0 1 0 28.284l-28.284 28.284a20 20 0 0 1 28.284 0 20 20 0 0 1 0 28.285l-22.624 22.628a20 20 0 1 1 28.28 28.28l-47.73 47.73a242.829 242.829 0 0 1 -107.83 62.58l-186.68 186.68-73.54-84.85 170.874-176.54a9.747 9.747 0 0 0 2.411-4.192 39.875 39.875 0 0 0 1.385-12.128l-4.95-123.92a32.643 32.643 0 0 1 37.41 21.71l19.15 57.48 71.681-119.48a19.985 19.985 0 0 1 31.268-3.849 19.984 19.984 0 0 1 3.744 23.069l-38.813 77.63z" fill="#e4b08b"/><rect fill="#c79a79" height="31.18" rx="8" transform="matrix(.949 -.316 .316 .949 -42.02 93.015)" width="16.001" x="257.569" y="160.38"/><path d="m110.731 294.113a20 20 0 0 1 0-28.284 20 20 0 0 1 28.284 0 20 20 0 0 1 0-28.284 20 20 0 0 1 28.284 0l11.314 11.314a20 20 0 0 1 0-28.285 20 20 0 0 1 28.284 0l13.79 13.79a242.873 242.873 0 0 1 62.578 107.836l135.092 135.089a3.708 3.708 0 0 1 -2.622 6.331h-149.441l-62.225-62.225-50.59 6.285a38.613 38.613 0 0 1 -32.062-11.015l-35.473-35.475a39.845 39.845 0 0 1 55.817.551l-48-48.03a20 20 0 0 1 0-28.284 20 20 0 0 1 28.285 0z" fill="#f6c8a7"/><rect fill="#c79a79" height="87.723" rx="8" transform="matrix(.707 .707 -.707 .707 209.616 -234.418)" width="16" x="379.776" y="91.958"/><rect fill="#c79a79" height="62.831" rx="8" transform="matrix(.707 .707 -.707 .707 243.954 -231.685)" width="16" x="393.646" y="147.22"/><rect fill="#e4b08b" height="39.687" rx="8" transform="matrix(-.707 .707 -.707 -.707 508.47 310.001)" width="16" x="182.032" y="240.464"/><rect fill="#e4b08b" height="47.644" rx="8" transform="matrix(-.707 .707 -.707 -.707 459.699 369.716)" width="16" x="145.279" y="256.243"/><rect fill="#e4b08b" height="31.86" rx="8" transform="matrix(-.707 .707 -.707 -.707 444.89 443.575)" width="16" x="122.577" y="297.997"/><g fill="#abdde2"><rect height="32.985" rx="7.697" transform="matrix(.243 -.97 .97 .243 13.854 713.744)" width="16" x="456" y="331.508"/><rect height="40" rx="7.697" transform="matrix(.6 -.8 .8 .6 -128 520)" width="16" x="448" y="368"/><rect height="46.648" rx="7.697" transform="matrix(.857 -.514 .514 .857 -15.923 46.512)" width="16.001" x="68" y="28.676"/><rect height="28.844" rx="7.697" transform="matrix(.555 -.832 .832 .555 -43.408 78.891)" width="16" x="44" y="65.578"/><rect height="15.999" rx="7.697" transform="matrix(.243 -.97 .97 .243 -331.412 519.522)" width="32.985" x="150.508" y="464"/><rect height="25.298" rx="7.697" transform="matrix(.949 -.316 .316 .949 -137.372 89.475)" width="16.001" x="199" y="455.351"/><path d="m354.508 353.554-.626-.14a7.689 7.689 0 0 1 -5.964-6.659 16 16 0 0 0 -20.425-13.58 7.615 7.615 0 0 1 -8.421-2.749l-.464-.649a7.717 7.717 0 0 1 4.088-11.869 31.994 31.994 0 0 1 41.164 27.482 7.679 7.679 0 0 1 -9.352 8.164z"/><path d="m383.944 383-.076-.455a7.774 7.774 0 0 1 5.065-8.675 39.4 39.4 0 0 0 11.239-5.988 7.8 7.8 0 0 1 10.064.649l.325.308a7.672 7.672 0 0 1 -.554 11.64 56.565 56.565 0 0 1 -15.978 8.538 7.705 7.705 0 0 1 -10.085-6.017z"/><path d="m413.359 321.684a40.337 40.337 0 0 0 -18.159-20.784 7.674 7.674 0 0 1 -3.516-9.285l.205-.58a7.672 7.672 0 0 1 10.863-4.238 56.473 56.473 0 0 1 25.6 29.3 7.672 7.672 0 0 1 -5.669 10.192l-.6.124a7.673 7.673 0 0 1 -8.724-4.729z"/><path d="m188.309 64.429-.561-.245a7.709 7.709 0 0 1 -3.237-11.461 48.709 48.709 0 0 1 8.143-9.063 7.71 7.71 0 0 1 11.739 1.989l.3.532a7.642 7.642 0 0 1 -1.574 9.573 32.474 32.474 0 0 0 -5.468 6.086 7.645 7.645 0 0 1 -9.342 2.589z"/><path d="m141.492 146.275a63.871 63.871 0 0 1 -31.327-30.822 7.707 7.707 0 0 1 4.64-10.651l.578-.182a7.754 7.754 0 0 1 9.316 4.139 47.9 47.9 0 0 0 23.247 22.873 7.755 7.755 0 0 1 4.293 9.246l-.173.582a7.708 7.708 0 0 1 -10.574 4.815z"/><path d="m66.327 219.763-.5-.372a7.669 7.669 0 0 1 -.819-11.6 55.6 55.6 0 0 1 21.105-12.878 7.667 7.667 0 0 1 9.934 6.059l.1.612a7.749 7.749 0 0 1 -5.209 8.589 39.719 39.719 0 0 0 -14.588 8.907 7.746 7.746 0 0 1 -10.023.683z"/><path d="m60.562 283.342a56.181 56.181 0 0 1 -6.2-9.411 7.673 7.673 0 0 1 4.423-10.784l.586-.2a7.674 7.674 0 0 1 9.226 3.675 40.133 40.133 0 0 0 4.3 6.52 7.674 7.674 0 0 1 -.27 9.938l-.412.459a7.673 7.673 0 0 1 -11.653-.197z"/></g></svg>