<svg height="512" viewBox="0 0 512 512" width="512" xmlns="http://www.w3.org/2000/svg"><g id="Flat"><path d="m272 64h80v32h-80z" fill="#dfdfdd"/><path d="m262.236 176a34.233 34.233 0 0 0 -23.654 9.373l-23.654 22.627a21.94 21.94 0 0 0 0 32 23.942 23.942 0 0 0 33.072 0l-16.346 16a21.939 21.939 0 0 0 0 32 23.047 23.047 0 0 0 32.346 0l-15.62 16a21.939 21.939 0 0 0 0 32 24.418 24.418 0 0 0 33.451 0l33.452-32h25.088v22.627c0 18.432 15.619 33.373 34.887 33.373h48.742v-200z" fill="#f6a368"/><path d="m256 128h112v248h-112z" fill="#4db6e4"/><path d="m256 168h80v152h-80z" fill="#85ccd5"/><path d="m440.829 369.1a124.239 124.239 0 0 1 -72.829-113.1l-65.214-35.571a26.9 26.9 0 0 1 -11.179-35.649l.36-.72a26.9 26.9 0 0 1 36.093-12.03l39.94 19.97v-88l-32-40h-52a20 20 0 0 1 -20-20 20 20 0 0 1 20-20h69.282a32 32 0 0 1 24.3 11.175l38.418 44.825 16 64 56 80v152h-15.336a76.926 76.926 0 0 1 -31.835-6.9z" fill="#fdbf92"/><path d="m384 177.167h16v53.666h-16z" fill="#fcb079" transform="matrix(.447 -.894 .894 .447 34.229 463.384)"/><path d="m296 96h32v32h-32z" fill="#d5d5d3"/><path d="m272 96h-88v16h-32v-18.256a29.744 29.744 0 0 1 29.744-29.744h90.256z" fill="#d5d5d3"/><path d="m168 216a24 24 0 0 1 -24-24 39.637 39.637 0 0 1 6.656-21.985l17.344-26.015 17.344 26.015a39.637 39.637 0 0 1 6.656 21.985 24 24 0 0 1 -24 24z" fill="#4db6e4"/><path d="m352 360-11.519-4.608c-40.081-9.887-87.299-1.274-116.481 28.608h-72a24 24 0 0 0 -24 24 24 24 0 0 0 24 24h-24l-66.09-50.887a23.335 23.335 0 0 0 -31.076 1.721 23.334 23.334 0 0 0 .733 33.7l73.614 65.407a24 24 0 0 0 15.941 6.059h158.878l80-32 128 8v-104z" fill="#fdc8a2"/><path d="m154.398 424h85.602v16h-85.602z" fill="#fdb683"/></g></svg>