<svg id="Capa_1" enable-background="new 0 0 512 512" height="512" viewBox="0 0 512 512" width="512" xmlns="http://www.w3.org/2000/svg"><g><path d="m444.71 333.93c.13 36.7-30.82 66.72-67.52 66.72h-242.38c-36.62 0-67.52-29.89-67.52-66.49v-.23c23.09-19.08 36.46-47.47 36.46-77.43v-104.25c0-84.08 68.15-152.24 152.25-152.25h.08c84.29.04 152.17 69.42 152.17 153.71v102.79c0 14.98 3.34 29.57 9.57 42.8 6.23 13.22 15.34 25.09 26.89 34.63z" fill="#5c5655"/><path d="m444.71 333.93c.13 36.7-30.82 66.72-67.52 66.72h-121.19v-400.65h.08c84.29.04 152.17 69.42 152.17 153.71v102.79c0 14.98 3.34 29.57 9.57 42.8 6.23 13.22 15.34 25.09 26.89 34.63z" fill="#363331"/><path d="m178.061 250.689h-36.313c-25.684 0-46.506-20.821-46.506-46.506 0-25.684 20.821-46.506 46.506-46.506h20.283z" fill="#febda6"/><path d="m349.97 157.677h20.282c25.685 0 46.506 20.821 46.506 46.506 0 25.684-20.821 46.506-46.506 46.506h-36.294z" fill="#ffac94"/><path d="m512 512h-103.29l-15-15-15 15h-245.42l-15-15-15 15h-103.29c0-43.29 28.7-81.34 70.33-93.24l47-13.43 138.67 33.53 138.67-33.53h.01l46.99 13.43c20.81 5.95 38.4 18.44 50.78 34.85 12.37 16.41 19.55 36.75 19.55 58.39z" fill="#edf9ff"/><path d="m512 512h-103.29l-15-15-15 15h-122.71v-73.14l138.67-33.53h.01l46.99 13.43c20.81 5.95 38.4 18.44 50.78 34.85 12.37 16.41 19.55 36.75 19.55 58.39z" fill="#c0e1f0"/><path d="m103.286 469.333h30v42.667h-30z" fill="#bde3ed"/><path d="m378.714 469.333h30v42.667h-30z" fill="#8fc3d9"/><path d="m329.14 386.61v52.25h-146.28v-52.25l17-55.24h112.28z" fill="#febda6"/><path d="m329.14 386.61v52.25h-73.14v-107.49h56.14z" fill="#ffac94"/><path d="m349.97 157.68v93.01l-93.97 15.79-93.97-15.79v-93.01h57.41c13.55 0 26.13-4.12 36.56-11.2 17.33-11.73 28.71-31.57 28.71-54.06 0 36.04 29.22 65.26 65.26 65.26z" fill="#ffcdc0"/><path d="m349.97 157.68v93.01l-93.97 15.79v-120c17.33-11.73 28.71-31.57 28.71-54.06 0 36.04 29.22 65.26 65.26 65.26z" fill="#febda6"/><path d="m256 438.86c-13.05 19.4-34.02 29.3-55.08 29.3-18.69 0-37.45-7.8-50.79-23.71l-32.8-39.11v-.01l65.53-18.72z" fill="#61b7ff"/><path d="m394.67 405.33v.01l-32.8 39.11c-28.36 33.82-81.23 31.03-105.87-5.59l73.14-52.25z" fill="#4274d1"/><g><path d="m380.48 23.67-34.34 79.64c-28.23-10.67-59.19-16-90.14-16s-61.9 5.33-90.14 16l-34.34-79.64c40.8-15.78 82.64-23.67 124.48-23.67s83.68 7.89 124.48 23.67z" fill="#edf9ff"/></g><path d="m380.48 23.67-34.34 79.64c-28.23-10.67-59.19-16-90.14-16v-87.31c41.84 0 83.68 7.89 124.48 23.67z" fill="#c0e1f0"/><path d="m309.496 291.164s-29.729 60.086-53.496 60.086c-25.95 0-49.44-11.2-66.45-29.3-17-18.1-27.52-43.11-27.52-70.73v-.53h37.79c12.66 0 24.89-4.52 34.51-12.74l21.67-18.52z" fill="#edf9ff"/><path d="m349.97 250.69v.53c0 55.24-42.07 100.03-93.97 100.03v-131.82l21.67 18.52c9.62 8.22 21.85 12.74 34.51 12.74z" fill="#c0e1f0"/></g></svg>